<svg width="458" height="79" viewBox="0 0 458 79" fill="none" xmlns="http://www.w3.org/2000/svg">
<path d="M167.064 58.3781H164.678C164.778 59.1409 164.803 59.7069 164.803 60.2237V62.5123H159.311C158.441 62.5123 157.721 62.4877 157 62.4139C157.075 62.9553 157.075 63.7919 157.075 64.3087V68.6398C157.075 69.1074 157.05 69.7718 157 70.2148H159.162C159.087 69.821 159.062 69.1812 159.062 68.7383V64.3333H172.953C172.729 66.4497 171.934 69.4273 170.592 71.519C169.077 73.8322 166.343 75.6779 163.858 76.4653C163.063 76.7606 162.119 77.0313 161.274 77.1544L162.889 79C167.437 77.7696 170.866 75.2595 172.729 72.0358C174.121 69.6734 174.842 66.5973 175.165 64.6286C175.264 64.1611 175.413 63.5213 175.537 63.1521L174.196 62.3154C173.872 62.4385 173.4 62.5123 172.481 62.5123H166.915V60.2237C166.915 59.7069 166.94 59.1409 167.064 58.3781Z" fill="white"/>
<path d="M183.539 65.3669V67.3356C184.061 67.2864 184.856 67.2617 185.253 67.2617H189.826V76.3177H184.11C183.539 76.3177 182.893 76.2685 182.321 76.1946V78.2617C182.918 78.2125 183.564 78.1879 184.11 78.1879H197.852C198.249 78.1879 199.02 78.2125 199.517 78.2617V76.1946C199.02 76.2685 198.448 76.3177 197.852 76.3177H191.838V67.2617H196.684C197.255 67.2617 197.901 67.2864 198.448 67.3356V65.3669C197.926 65.4161 197.305 65.4653 196.684 65.4653H185.253C184.856 65.4653 184.061 65.4407 183.539 65.3669Z" fill="white"/>
<path d="M222.104 57.6398L220.738 58.2058C221.309 58.9933 222.03 60.1991 222.552 61.1588C222.179 61.2327 221.806 61.2327 221.483 61.2327H209.034C208.214 61.2327 207.22 61.1588 206.549 61.0604V63.2506C207.17 63.226 208.04 63.1767 209.009 63.1767H221.732C221.384 65.5391 220.241 68.9597 218.476 71.1991C216.389 73.8322 213.606 75.9239 208.785 77.1051L210.475 78.9508C215.022 77.5481 217.979 75.2595 220.266 72.3803C222.229 69.8456 223.421 65.8837 223.968 63.2998C224.067 62.8076 224.167 62.4139 224.341 62.0694L223.123 61.3065L224.067 60.8881C223.57 59.953 222.676 58.4765 222.104 57.6398ZM225.285 57L223.918 57.566C224.589 58.4273 225.409 59.83 225.956 60.8389L227.323 60.2483C226.801 59.3132 225.906 57.8367 225.285 57Z" fill="white"/>
<path d="M248.047 61.6264L246.779 60.6667C246.382 60.7897 245.736 60.8635 244.916 60.8635H235.324C234.579 60.8635 233.162 60.7651 232.814 60.7159V62.9553C233.088 62.9306 234.454 62.8322 235.324 62.8322H245.015C244.394 64.8747 242.58 67.7785 240.89 69.6734C238.331 72.5034 234.653 75.4318 230.652 76.9821L232.243 78.6309C235.92 76.9821 239.275 74.2752 241.934 71.4452C244.469 73.6846 247.103 76.5884 248.767 78.7539L250.507 77.2774C248.892 75.3333 245.86 72.1342 243.251 69.9195C245.015 67.7047 246.581 64.8255 247.426 62.7092C247.575 62.3647 247.898 61.8233 248.047 61.6264Z" fill="white"/>
<path d="M261.391 75.9239C261.391 76.8345 261.341 78.0403 261.217 78.8277H263.627C263.528 78.0157 263.478 76.6868 263.478 75.9239C263.478 75.2103 263.478 71.4944 263.453 67.8031C266.211 68.6644 270.51 70.3132 273.219 71.7651L274.064 69.6734C271.455 68.3691 266.733 66.5973 263.453 65.613C263.453 64.0626 263.453 62.6353 263.453 61.6018C263.453 60.8635 263.553 59.8054 263.627 59.0425H261.192C261.341 59.8054 261.391 60.9128 261.391 61.6018V75.9239Z" fill="white"/>
<path d="M301 61.4541L299.782 60.2975C299.41 60.3714 298.515 60.4452 298.043 60.4452H283.78C282.86 60.4452 281.817 60.3468 280.947 60.2237V62.4631C281.916 62.3647 282.86 62.3154 283.78 62.3154H297.944C297.124 63.8412 294.788 66.5235 292.502 67.8277L294.142 69.132C296.974 67.1879 299.335 64.0134 300.329 62.34C300.503 62.0694 300.826 61.7002 301 61.4541ZM291.085 64.7025H288.849C288.923 65.3423 288.948 65.8837 288.948 66.4743C288.948 70.5839 288.402 74.0783 284.55 76.4161C283.854 76.9083 283.009 77.302 282.314 77.5235L284.152 79C290.489 75.8747 291.085 71.3714 291.085 64.7025Z" fill="white"/>
<path d="M0 68L140 68" stroke="white" stroke-width="2"/>
<path d="M318 68L458 68" stroke="white" stroke-width="2"/>
<circle cx="320" cy="23" r="23" fill="#D03737"/>
<path d="M74.9327 1.9871L80.64 1.92903C82.5813 1.92903 84.2896 1.85161 85.7649 1.69678C85.9591 1.92903 86.0561 2.29677 86.0561 2.8L85.9979 3.14839C85.0661 3.45806 84.3672 3.96129 83.9013 4.65807C83.1248 5.66452 80.4459 10.3484 75.8645 18.7097L83.4937 37.4645L90.3075 20.2774C93.5688 12.1097 95.413 6.61291 95.8401 3.7871C95.1024 3.63226 93.627 3.55484 91.414 3.55484C91.2975 3.36129 91.2393 3.09032 91.2393 2.74194C91.2393 2.35484 91.2975 2.02581 91.414 1.75484C93.9765 1.87097 96.1312 1.92903 97.8784 1.92903C99.6643 1.92903 101.528 1.7742 103.469 1.46452C103.663 1.69677 103.76 2.02581 103.76 2.45161L103.702 2.91613C102.654 3.30323 101.741 3.88387 100.965 4.65807C100.227 5.43226 99.2761 6.90323 98.1113 9.07097C96.9466 11.2387 96.0536 13.0387 95.4324 14.471L82.0959 46H81.1059L72.2538 24.4581L61.8292 46H60.8392L48.6092 15.8645C46.3185 10.0581 44.4938 6.36129 43.1349 4.7742C42.5137 4.07742 41.1548 3.45807 39.0582 2.91613C39.0194 2.76129 39 2.52903 39 2.21936C39 1.90968 39.0971 1.65807 39.2912 1.46452C41.776 1.7742 44.4549 1.92903 47.328 1.92903C50.2011 1.92903 53.2294 1.87097 56.4131 1.75484C56.4907 1.90968 56.5296 2.18065 56.5296 2.56774L56.4131 3.55484C54.1612 3.55484 52.5694 3.57419 51.6376 3.6129C51.8705 6.94194 53.4818 12.4968 56.4713 20.2774L63.2269 37.4645L71.089 21.671L68.7595 15.8645C66.3912 9.98065 64.6829 6.24516 63.6346 4.65807C63.1687 4 62.2563 3.49677 60.8974 3.14839C60.8586 3.07097 60.8392 2.87742 60.8392 2.56774C60.8392 2.25807 60.9168 1.96774 61.0721 1.69678C62.9357 1.85161 65.537 1.92903 68.876 1.92903L74.9327 1.9871ZM70.4484 3.72903C70.6037 6.12903 71.982 10.3871 74.5833 16.5032C77.8058 9.30323 79.5335 5.04516 79.7664 3.72903C78.0193 3.61291 76.4469 3.55484 75.0492 3.55484L70.4484 3.72903Z" fill="white"/>
<path d="M128.879 43.9677L118.92 43.7355H115.833C111.33 43.7355 108.088 43.8903 106.108 44.2C105.914 43.9677 105.816 43.6387 105.816 43.2129L105.875 42.7484C107.894 42.2839 109.214 41.5677 109.835 40.6C110.34 39.8258 110.67 38.8581 110.825 37.6968C111.291 34.1742 111.524 29.3742 111.524 23.2968C111.524 10.5613 111.174 4.07742 110.475 3.84516C109.738 3.65161 108.457 3.55484 106.632 3.55484C106.554 3.28387 106.515 2.97419 106.515 2.62581C106.515 2.27742 106.554 1.9871 106.632 1.75484L115.484 1.92903H122.181L135.925 1.52258C136.585 1.52258 136.915 1.73548 136.915 2.16129C136.915 2.2 136.857 2.66452 136.741 3.55484C136.352 5.95484 136.081 8.64516 135.925 11.6258C135.459 11.8581 135.032 11.9742 134.644 11.9742C134.295 11.9742 133.965 11.8968 133.654 11.7419C133.188 8.21936 132.839 6.03226 132.606 5.18065C129.073 4.36774 125.889 3.96129 123.055 3.96129C120.259 3.96129 118.318 4.03871 117.231 4.19355C116.765 6.67097 116.532 12.1871 116.532 20.7419C117.153 20.8968 118.803 20.9742 121.482 20.9742C124.161 20.9742 126.161 20.8968 127.481 20.7419C128.801 20.5871 129.752 20.2774 130.335 19.8129C130.956 19.3484 131.422 18.4 131.732 16.9677C132.548 16.9677 133.149 17.0839 133.538 17.3161C133.149 19.5226 132.955 21.1484 132.955 22.1935L133.072 27.2452C132.8 27.4387 132.451 27.5355 132.023 27.5355L131.208 27.4194L130.568 23.5871C128.471 23.2387 126.025 23.0645 123.23 23.0645C120.434 23.0645 118.202 23.1613 116.532 23.3548V33.7484C116.532 37.3871 116.649 39.9419 116.882 41.4129C118.085 41.5677 119.464 41.6452 121.017 41.6452C125.016 41.6452 128.976 41.1226 132.897 40.0774C133.479 39.1484 134.042 37.9484 134.586 36.4774C135.129 34.9677 135.44 34.0774 135.518 33.8065C135.751 33.7677 136.061 33.7484 136.45 33.7484C136.838 33.7484 137.265 33.9226 137.731 34.271C137.148 37.0194 136.721 39.8645 136.45 42.8064C136.411 43.271 136.158 43.5226 135.692 43.5613C133.984 43.8323 131.713 43.9677 128.879 43.9677Z" fill="white"/>
<path d="M166.699 43.9677L156.74 43.7355H153.654C149.15 43.7355 145.908 43.8903 143.928 44.2C143.734 43.9677 143.637 43.6387 143.637 43.2129L143.695 42.7484C145.714 42.2839 147.034 41.5677 147.655 40.6C148.16 39.8258 148.49 38.8581 148.645 37.6968C149.111 34.1742 149.344 29.3742 149.344 23.2968C149.344 10.5613 148.995 4.07742 148.296 3.84516C147.558 3.65161 146.277 3.55484 144.452 3.55484C144.375 3.28387 144.336 2.97419 144.336 2.62581C144.336 2.27742 144.375 1.9871 144.452 1.75484L153.304 1.92903H160.002L173.746 1.52258C174.406 1.52258 174.736 1.73548 174.736 2.16129C174.736 2.2 174.678 2.66452 174.561 3.55484C174.173 5.95484 173.901 8.64516 173.746 11.6258C173.28 11.8581 172.853 11.9742 172.465 11.9742C172.115 11.9742 171.785 11.8968 171.475 11.7419C171.009 8.21936 170.659 6.03226 170.426 5.18065C166.893 4.36774 163.71 3.96129 160.875 3.96129C158.08 3.96129 156.139 4.03871 155.051 4.19355C154.586 6.67097 154.353 12.1871 154.353 20.7419C154.974 20.8968 156.624 20.9742 159.303 20.9742C161.982 20.9742 163.981 20.8968 165.301 20.7419C166.621 20.5871 167.573 20.2774 168.155 19.8129C168.776 19.3484 169.242 18.4 169.553 16.9677C170.368 16.9677 170.97 17.0839 171.358 17.3161C170.97 19.5226 170.776 21.1484 170.776 22.1935L170.892 27.2452C170.62 27.4387 170.271 27.5355 169.844 27.5355L169.029 27.4194L168.388 23.5871C166.291 23.2387 163.845 23.0645 161.05 23.0645C158.255 23.0645 156.022 23.1613 154.353 23.3548V33.7484C154.353 37.3871 154.469 39.9419 154.702 41.4129C155.906 41.5677 157.284 41.6452 158.837 41.6452C162.836 41.6452 166.796 41.1226 170.717 40.0774C171.3 39.1484 171.863 37.9484 172.406 36.4774C172.95 34.9677 173.261 34.0774 173.338 33.8065C173.571 33.7677 173.882 33.7484 174.27 33.7484C174.658 33.7484 175.085 33.9226 175.551 34.271C174.969 37.0194 174.542 39.8645 174.27 42.8064C174.231 43.271 173.979 43.5226 173.513 43.5613C171.805 43.8323 169.533 43.9677 166.699 43.9677Z" fill="white"/>
<path d="M182.273 1.75484L191.125 1.92903H200.093C203.782 1.92903 206.752 2.74194 209.004 4.36774C211.294 5.99355 212.44 8.37419 212.44 11.5097C212.44 14.0258 211.586 16.1548 209.877 17.8968C208.169 19.6387 206.402 20.7419 204.578 21.2065C207.761 21.7871 210.227 23.0258 211.974 24.9226C213.76 26.8194 214.653 29.2968 214.653 32.3548C214.653 35.9161 213.08 38.7032 209.936 40.7161C206.83 42.729 202.947 43.7355 198.288 43.7355C189.785 43.7355 184.272 43.8903 181.748 44.2C181.554 43.9677 181.457 43.6387 181.457 43.2129L181.516 42.7484C183.534 42.2839 184.855 41.5677 185.476 40.6C185.98 39.8258 186.31 38.8581 186.466 37.6968C186.932 34.1742 187.165 29.3742 187.165 23.2968C187.165 10.5613 186.815 4.07742 186.116 3.84516C185.379 3.65161 184.097 3.55484 182.273 3.55484C182.195 3.28387 182.156 2.97419 182.156 2.62581C182.156 2.27742 182.195 1.9871 182.273 1.75484ZM192.173 22.1355V33.7484C192.173 37.3871 192.29 39.9419 192.522 41.4129C193.92 41.5677 195.551 41.6452 197.414 41.6452C201.413 41.6452 204.384 40.9677 206.325 39.6129C208.305 38.2581 209.295 36.071 209.295 33.0516C209.295 29.9935 208.324 27.4581 206.383 25.4452C204.442 23.4323 201.918 22.4258 198.812 22.4258H196.366C196.133 22.1548 196.017 21.8258 196.017 21.4387L196.366 20.2774H198.055C204.267 20.2774 207.373 17.5871 207.373 12.2065C207.373 9.53548 206.558 7.50323 204.927 6.10968C203.296 4.67742 201.142 3.96129 198.463 3.96129C195.823 3.96129 193.959 4.03871 192.872 4.19355C192.406 6.05161 192.173 12.0323 192.173 22.1355Z" fill="white"/>
<path d="M246.023 5.4129C243.422 3.74839 240.918 2.91613 238.511 2.91613C236.104 2.91613 234.162 3.5742 232.687 4.89032C231.212 6.20645 230.474 7.87097 230.474 9.88387C230.474 11.8581 231.27 13.5806 232.862 15.0516C234.454 16.5226 237.016 18.1097 240.549 19.8129C246.218 22.5613 249.809 25.5032 251.323 28.6387C252.022 30.1097 252.371 31.6774 252.371 33.3419C252.371 36.9419 250.838 39.7677 247.771 41.8194C244.742 43.871 241.17 44.8968 237.055 44.8968C234.842 44.8968 232.532 44.6839 230.125 44.2581C227.717 43.8323 225.99 43.4065 224.941 42.9806C224.553 39.9613 223.893 36.5161 222.961 32.6452C223.66 32.2968 224.184 32.1226 224.534 32.1226C224.922 32.1226 225.213 32.1419 225.407 32.1806C226.494 34.8903 227.504 36.9419 228.436 38.3355C229.251 39.1871 229.969 39.8839 230.59 40.4258C231.212 40.929 232.221 41.4516 233.619 41.9935C235.055 42.5355 236.783 42.8064 238.802 42.8064C240.821 42.8064 242.646 42.1097 244.276 40.7161C245.907 39.3226 246.722 37.5419 246.722 35.3742C246.722 33.6323 246.412 32.3742 245.79 31.6C245.169 30.8258 244.703 30.2452 244.393 29.8581C244.121 29.471 243.577 29.0258 242.762 28.5226C241.947 27.9806 241.384 27.6129 241.073 27.4194C240.763 27.2258 240.083 26.8581 239.035 26.3161C238.025 25.7742 237.113 25.2903 236.298 24.8645C235.521 24.4 234.861 24.0129 234.318 23.7032C233.774 23.3935 232.939 22.9097 231.813 22.2516C230.687 21.5548 229.892 21.0129 229.426 20.6258C228.96 20.2 228.358 19.6387 227.62 18.9419C226.883 18.2452 226.358 17.6065 226.048 17.0258C225.271 15.3613 224.883 13.7935 224.883 12.3226C224.883 8.76129 226.378 5.99355 229.367 4.01936C232.357 2.00645 235.968 1 240.2 1C241.947 1 243.888 1.23226 246.023 1.69678C248.159 2.16129 249.809 2.64516 250.974 3.14839C250.624 4.50323 250.294 7.32903 249.984 11.6258C249.595 11.8194 249.188 11.9161 248.761 11.9161C248.334 11.9161 247.965 11.8387 247.654 11.6839C247.615 11.2194 247.382 10.1742 246.955 8.54839C246.528 6.88387 246.218 5.83871 246.023 5.4129Z" fill="white"/>
<path d="M285.606 43.9097L276.055 43.7355C271.862 43.7355 268.387 43.8903 265.63 44.2C265.436 43.9677 265.339 43.6387 265.339 43.2129L265.397 42.7484C268.076 42.3226 269.843 41.7806 270.697 41.1226C271.551 40.4258 272.114 39.3032 272.386 37.7548C272.93 34.8903 273.201 30.0903 273.201 23.3548C273.201 16.6194 273.124 11.9161 272.968 9.24516C272.813 6.57419 272.619 4.90968 272.386 4.25162C271.415 4.05807 270.231 3.96129 268.834 3.96129C265.572 3.96129 263.029 4.3871 261.204 5.23871L258.642 11.6258C257.749 11.6258 257.089 11.471 256.662 11.1613L257.594 2.16129C257.594 1.73548 257.924 1.52258 258.584 1.52258L268.834 1.92903H283.102L294.283 1.52258C294.982 1.52258 295.332 1.73548 295.332 2.16129C294.711 5.56774 294.4 8.68387 294.4 11.5097C294.089 11.6645 293.701 11.7419 293.235 11.7419C292.769 11.7419 292.4 11.6645 292.129 11.5097C291.43 7.67742 291.042 5.5871 290.964 5.23871C289.023 4.3871 286.363 3.96129 282.985 3.96129C281.471 3.96129 280.248 4.05807 279.316 4.25162C279.2 4.6 279.045 6.20645 278.85 9.07097C278.695 11.9355 278.617 15.6129 278.617 20.1032V30.4968C278.617 34.7935 278.928 38.529 279.549 41.7032C281.335 41.9742 283.354 42.1097 285.606 42.1097C285.722 42.4194 285.781 42.7677 285.781 43.1548C285.781 43.5032 285.722 43.7548 285.606 43.9097Z" fill="white"/>
<path d="M345.896 1.75484L354.748 1.92903H361.678C366.065 1.92903 369.521 2.87742 372.044 4.7742C374.568 6.63226 375.83 9.53549 375.83 13.4839C375.83 16.4645 375.034 18.9226 373.442 20.8581C371.889 22.7548 369.754 24.0903 367.036 24.8645C368.395 27.2258 370.084 29.9161 372.103 32.9355C374.16 35.9548 375.811 38.1806 377.053 39.6129C378.334 41.0064 379.402 41.7806 380.256 41.9355C381.11 42.0516 382.43 42.1097 384.216 42.1097C384.294 42.4194 384.333 42.729 384.333 43.0387C384.333 43.3097 384.294 43.6 384.216 43.9097C381.382 44.0645 379.169 44.2581 377.577 44.4903C376.024 44.7613 375.092 44.8968 374.782 44.8968C374.51 44.8968 373.928 44.4129 373.035 43.4452C372.18 42.4387 371.171 41.0645 370.006 39.3226C368.841 37.5419 367.774 35.8968 366.803 34.3871C365.871 32.8774 364.804 31.1548 363.6 29.2194C362.435 27.2452 361.717 26.0452 361.445 25.6194C358.96 25.6194 357.039 25.5419 355.68 25.3871V34.0387C355.68 36.3613 355.816 38.9161 356.087 41.7032C357.291 41.9742 358.999 42.1097 361.212 42.1097C361.329 42.4194 361.387 42.7677 361.387 43.1548C361.387 43.5032 361.329 43.7548 361.212 43.9097L353.467 43.7355C350.516 43.7355 347.818 43.8903 345.372 44.2C345.177 43.9677 345.08 43.6387 345.08 43.2129L345.139 42.7484C347.158 42.2839 348.478 41.5677 349.099 40.6C349.604 39.8258 349.934 38.8581 350.089 37.6968C350.555 34.1742 350.788 29.4129 350.788 23.4129C350.788 10.6 350.438 4.07742 349.739 3.84516C349.002 3.65161 347.721 3.55484 345.896 3.55484C345.74 3.28387 345.663 3.03226 345.663 2.8C345.663 2.56774 345.74 2.21936 345.896 1.75484ZM370.763 14.1226C370.763 11.2581 369.948 8.81935 368.317 6.80645C366.725 4.79355 364.59 3.7871 361.911 3.7871C359.232 3.7871 357.369 3.86452 356.32 4.01936C355.893 5.72258 355.68 12.1484 355.68 23.2968C357.077 23.4129 359.019 23.471 361.503 23.471C363.988 23.471 366.143 22.6194 367.968 20.9161C369.831 19.2129 370.763 16.9484 370.763 14.1226Z" fill="white"/>
<path d="M409.148 43.9677L399.189 43.7355H396.103C391.599 43.7355 388.357 43.8903 386.377 44.2C386.183 43.9677 386.086 43.6387 386.086 43.2129L386.144 42.7484C388.163 42.2839 389.483 41.5677 390.104 40.6C390.609 39.8258 390.939 38.8581 391.094 37.6968C391.56 34.1742 391.793 29.3742 391.793 23.2968C391.793 10.5613 391.444 4.07742 390.745 3.84516C390.007 3.65161 388.726 3.55484 386.901 3.55484C386.823 3.28387 386.785 2.97419 386.785 2.62581C386.785 2.27742 386.823 1.9871 386.901 1.75484L395.753 1.92903H402.451L416.195 1.52258C416.855 1.52258 417.185 1.73548 417.185 2.16129C417.185 2.2 417.126 2.66452 417.01 3.55484C416.622 5.95484 416.35 8.64516 416.195 11.6258C415.729 11.8581 415.302 11.9742 414.913 11.9742C414.564 11.9742 414.234 11.8968 413.923 11.7419C413.457 8.21936 413.108 6.03226 412.875 5.18065C409.342 4.36774 406.158 3.96129 403.324 3.96129C400.529 3.96129 398.587 4.03871 397.5 4.19355C397.034 6.67097 396.801 12.1871 396.801 20.7419C397.423 20.8968 399.073 20.9742 401.752 20.9742C404.431 20.9742 406.43 20.8968 407.75 20.7419C409.07 20.5871 410.021 20.2774 410.604 19.8129C411.225 19.3484 411.691 18.4 412.002 16.9677C412.817 16.9677 413.419 17.0839 413.807 17.3161C413.419 19.5226 413.225 21.1484 413.225 22.1935L413.341 27.2452C413.069 27.4387 412.72 27.5355 412.293 27.5355L411.477 27.4194L410.837 23.5871C408.74 23.2387 406.294 23.0645 403.499 23.0645C400.703 23.0645 398.471 23.1613 396.801 23.3548V33.7484C396.801 37.3871 396.918 39.9419 397.151 41.4129C398.354 41.5677 399.733 41.6452 401.286 41.6452C405.285 41.6452 409.245 41.1226 413.166 40.0774C413.749 39.1484 414.312 37.9484 414.855 36.4774C415.399 34.9677 415.709 34.0774 415.787 33.8065C416.02 33.7677 416.331 33.7484 416.719 33.7484C417.107 33.7484 417.534 33.9226 418 34.271C417.418 37.0194 416.991 39.8645 416.719 42.8064C416.68 43.271 416.428 43.5226 415.962 43.5613C414.253 43.8323 411.982 43.9677 409.148 43.9677Z" fill="white"/>
</svg>
