<svg width="458" height="79" viewBox="0 0 458 79" fill="none" xmlns="http://www.w3.org/2000/svg">
<path d="M0 68L140 68" stroke="#151515" stroke-width="2"/>
<path d="M318 68L458 68" stroke="#151515" stroke-width="2"/>
<path d="M166.204 58.3781H163.785C163.886 59.1409 163.911 59.7069 163.911 60.2237V62.5123H158.343C157.461 62.5123 156.731 62.4877 156 62.4139C156.076 62.9553 156.076 63.7919 156.076 64.3087V68.6398C156.076 69.1074 156.05 69.7718 156 70.2148H158.192C158.116 69.821 158.091 69.1812 158.091 68.7383V64.3333H172.175C171.948 66.4497 171.142 69.4273 169.781 71.519C168.244 73.8322 165.473 75.6779 162.954 76.4653C162.147 76.7606 161.19 77.0313 160.333 77.1544L161.971 79C166.582 77.7696 170.058 75.2595 171.948 72.0358C173.359 69.6734 174.089 66.5973 174.417 64.6286C174.518 64.1611 174.669 63.5213 174.795 63.1521L173.434 62.3154C173.107 62.4385 172.628 62.5123 171.696 62.5123H166.052V60.2237C166.052 59.7069 166.078 59.1409 166.204 58.3781Z" fill="#151515"/>
<path d="M182.907 65.3669V67.3356C183.436 67.2864 184.243 67.2617 184.646 67.2617H189.281V76.3177H183.487C182.907 76.3177 182.252 76.2685 181.673 76.1946V78.2617C182.277 78.2125 182.933 78.1879 183.487 78.1879H197.419C197.822 78.1879 198.603 78.2125 199.107 78.2617V76.1946C198.603 76.2685 198.024 76.3177 197.419 76.3177H191.322V67.2617H196.235C196.814 67.2617 197.47 67.2864 198.024 67.3356V65.3669C197.495 65.4161 196.865 65.4653 196.235 65.4653H184.646C184.243 65.4653 183.436 65.4407 182.907 65.3669Z" fill="#151515"/>
<path d="M222.009 57.6398L220.623 58.2058C221.202 58.9933 221.933 60.1991 222.462 61.1588C222.084 61.2327 221.706 61.2327 221.379 61.2327H208.757C207.925 61.2327 206.917 61.1588 206.237 61.0604V63.2506C206.867 63.226 207.749 63.1767 208.731 63.1767H221.631C221.278 65.5391 220.119 68.9597 218.33 71.1991C216.214 73.8322 213.392 75.9239 208.505 77.1051L210.218 78.9508C214.828 77.5481 217.826 75.2595 220.144 72.3803C222.135 69.8456 223.344 65.8837 223.898 63.2998C223.999 62.8076 224.1 62.4139 224.276 62.0694L223.042 61.3065L223.999 60.8881C223.495 59.953 222.588 58.4765 222.009 57.6398ZM225.233 57L223.848 57.566C224.528 58.4273 225.359 59.83 225.914 60.8389L227.299 60.2483C226.77 59.3132 225.863 57.8367 225.233 57Z" fill="#151515"/>
<path d="M248.311 61.6264L247.026 60.6667C246.623 60.7897 245.968 60.8635 245.137 60.8635H235.412C234.656 60.8635 233.22 60.7651 232.867 60.7159V62.9553C233.144 62.9306 234.53 62.8322 235.412 62.8322H245.238C244.608 64.8747 242.769 67.7785 241.055 69.6734C238.46 72.5034 234.732 75.4318 230.675 76.9821L232.288 78.6309C236.017 76.9821 239.418 74.2752 242.114 71.4452C244.683 73.6846 247.354 76.5884 249.042 78.7539L250.806 77.2774C249.168 75.3333 246.094 72.1342 243.449 69.9195C245.238 67.7047 246.825 64.8255 247.681 62.7092C247.833 62.3647 248.16 61.8233 248.311 61.6264Z" fill="#151515"/>
<path d="M261.841 75.9239C261.841 76.8345 261.79 78.0403 261.664 78.8277H264.108C264.007 78.0157 263.957 76.6868 263.957 75.9239C263.957 75.2103 263.957 71.4944 263.932 67.8031C266.728 68.6644 271.087 70.3132 273.833 71.7651L274.69 69.6734C272.044 68.3691 267.257 66.5973 263.932 65.613C263.932 64.0626 263.932 62.6353 263.932 61.6018C263.932 60.8635 264.032 59.8054 264.108 59.0425H261.639C261.79 59.8054 261.841 60.9128 261.841 61.6018V75.9239Z" fill="#151515"/>
<path d="M302 61.4541L300.765 60.2975C300.388 60.3714 299.481 60.4452 299.002 60.4452H284.54C283.608 60.4452 282.55 60.3468 281.668 60.2237V62.4631C282.651 62.3647 283.608 62.3154 284.54 62.3154H298.901C298.07 63.8412 295.701 66.5235 293.384 67.8277L295.046 69.132C297.919 67.1879 300.312 64.0134 301.32 62.34C301.496 62.0694 301.824 61.7002 302 61.4541ZM291.948 64.7025H289.68C289.756 65.3423 289.781 65.8837 289.781 66.4743C289.781 70.5839 289.227 74.0783 285.321 76.4161C284.616 76.9083 283.759 77.302 283.054 77.5235L284.918 79C291.343 75.8747 291.948 71.3714 291.948 64.7025Z" fill="#151515"/>
<circle cx="314" cy="23" r="23" fill="#D03737"/>
<path d="M68.9327 1.9871L74.64 1.92903C76.5813 1.92903 78.2896 1.85161 79.7649 1.69678C79.9591 1.92903 80.0561 2.29677 80.0561 2.8L79.9979 3.14839C79.0661 3.45806 78.3672 3.96129 77.9013 4.65807C77.1248 5.66452 74.4459 10.3484 69.8645 18.7097L77.4937 37.4645L84.3075 20.2774C87.5688 12.1097 89.413 6.61291 89.8401 3.7871C89.1024 3.63226 87.627 3.55484 85.414 3.55484C85.2975 3.36129 85.2393 3.09032 85.2393 2.74194C85.2393 2.35484 85.2975 2.02581 85.414 1.75484C87.9765 1.87097 90.1312 1.92903 91.8784 1.92903C93.6643 1.92903 95.528 1.7742 97.4692 1.46452C97.6633 1.69677 97.7604 2.02581 97.7604 2.45161L97.7022 2.91613C96.6539 3.30323 95.7415 3.88387 94.965 4.65807C94.2273 5.43226 93.2761 6.90323 92.1113 9.07097C90.9466 11.2387 90.0536 13.0387 89.4324 14.471L76.0959 46H75.1059L66.2538 24.4581L55.8292 46H54.8392L42.6092 15.8645C40.3185 10.0581 38.4938 6.36129 37.1349 4.7742C36.5137 4.07742 35.1548 3.45807 33.0582 2.91613C33.0194 2.76129 33 2.52903 33 2.21936C33 1.90968 33.0971 1.65807 33.2912 1.46452C35.776 1.7742 38.4549 1.92903 41.328 1.92903C44.2011 1.92903 47.2294 1.87097 50.4131 1.75484C50.4907 1.90968 50.5296 2.18065 50.5296 2.56774L50.4131 3.55484C48.1612 3.55484 46.5694 3.57419 45.6376 3.6129C45.8705 6.94194 47.4818 12.4968 50.4713 20.2774L57.2269 37.4645L65.089 21.671L62.7595 15.8645C60.3912 9.98065 58.6829 6.24516 57.6346 4.65807C57.1687 4 56.2563 3.49677 54.8974 3.14839C54.8586 3.07097 54.8392 2.87742 54.8392 2.56774C54.8392 2.25807 54.9168 1.96774 55.0721 1.69678C56.9357 1.85161 59.537 1.92903 62.876 1.92903L68.9327 1.9871ZM64.4484 3.72903C64.6037 6.12903 65.982 10.3871 68.5833 16.5032C71.8058 9.30323 73.5335 5.04516 73.7664 3.72903C72.0193 3.61291 70.4469 3.55484 69.0492 3.55484L64.4484 3.72903Z" fill="#151515"/>
<path d="M122.879 43.9677L112.92 43.7355H109.833C105.33 43.7355 102.088 43.8903 100.108 44.2C99.9135 43.9677 99.8165 43.6387 99.8165 43.2129L99.8747 42.7484C101.894 42.2839 103.214 41.5677 103.835 40.6C104.34 39.8258 104.67 38.8581 104.825 37.6968C105.291 34.1742 105.524 29.3742 105.524 23.2968C105.524 10.5613 105.174 4.07742 104.475 3.84516C103.738 3.65161 102.457 3.55484 100.632 3.55484C100.554 3.28387 100.515 2.97419 100.515 2.62581C100.515 2.27742 100.554 1.9871 100.632 1.75484L109.484 1.92903H116.181L129.925 1.52258C130.585 1.52258 130.915 1.73548 130.915 2.16129C130.915 2.2 130.857 2.66452 130.741 3.55484C130.352 5.95484 130.081 8.64516 129.925 11.6258C129.459 11.8581 129.032 11.9742 128.644 11.9742C128.295 11.9742 127.965 11.8968 127.654 11.7419C127.188 8.21936 126.839 6.03226 126.606 5.18065C123.073 4.36774 119.889 3.96129 117.055 3.96129C114.259 3.96129 112.318 4.03871 111.231 4.19355C110.765 6.67097 110.532 12.1871 110.532 20.7419C111.153 20.8968 112.803 20.9742 115.482 20.9742C118.161 20.9742 120.161 20.8968 121.481 20.7419C122.801 20.5871 123.752 20.2774 124.335 19.8129C124.956 19.3484 125.422 18.4 125.732 16.9677C126.548 16.9677 127.149 17.0839 127.538 17.3161C127.149 19.5226 126.955 21.1484 126.955 22.1935L127.072 27.2452C126.8 27.4387 126.451 27.5355 126.023 27.5355L125.208 27.4194L124.568 23.5871C122.471 23.2387 120.025 23.0645 117.23 23.0645C114.434 23.0645 112.202 23.1613 110.532 23.3548V33.7484C110.532 37.3871 110.649 39.9419 110.882 41.4129C112.085 41.5677 113.464 41.6452 115.017 41.6452C119.016 41.6452 122.976 41.1226 126.897 40.0774C127.479 39.1484 128.042 37.9484 128.586 36.4774C129.129 34.9677 129.44 34.0774 129.518 33.8065C129.751 33.7677 130.061 33.7484 130.45 33.7484C130.838 33.7484 131.265 33.9226 131.731 34.271C131.148 37.0194 130.721 39.8645 130.45 42.8064C130.411 43.271 130.158 43.5226 129.692 43.5613C127.984 43.8323 125.713 43.9677 122.879 43.9677Z" fill="#151515"/>
<path d="M160.699 43.9677L150.74 43.7355H147.654C143.15 43.7355 139.908 43.8903 137.928 44.2C137.734 43.9677 137.637 43.6387 137.637 43.2129L137.695 42.7484C139.714 42.2839 141.034 41.5677 141.655 40.6C142.16 39.8258 142.49 38.8581 142.645 37.6968C143.111 34.1742 143.344 29.3742 143.344 23.2968C143.344 10.5613 142.995 4.07742 142.296 3.84516C141.558 3.65161 140.277 3.55484 138.452 3.55484C138.375 3.28387 138.336 2.97419 138.336 2.62581C138.336 2.27742 138.375 1.9871 138.452 1.75484L147.304 1.92903H154.002L167.746 1.52258C168.406 1.52258 168.736 1.73548 168.736 2.16129C168.736 2.2 168.678 2.66452 168.561 3.55484C168.173 5.95484 167.901 8.64516 167.746 11.6258C167.28 11.8581 166.853 11.9742 166.465 11.9742C166.115 11.9742 165.785 11.8968 165.475 11.7419C165.009 8.21936 164.659 6.03226 164.426 5.18065C160.893 4.36774 157.71 3.96129 154.875 3.96129C152.08 3.96129 150.139 4.03871 149.051 4.19355C148.586 6.67097 148.353 12.1871 148.353 20.7419C148.974 20.8968 150.624 20.9742 153.303 20.9742C155.982 20.9742 157.981 20.8968 159.301 20.7419C160.621 20.5871 161.573 20.2774 162.155 19.8129C162.776 19.3484 163.242 18.4 163.553 16.9677C164.368 16.9677 164.97 17.0839 165.358 17.3161C164.97 19.5226 164.776 21.1484 164.776 22.1935L164.892 27.2452C164.62 27.4387 164.271 27.5355 163.844 27.5355L163.029 27.4194L162.388 23.5871C160.291 23.2387 157.845 23.0645 155.05 23.0645C152.255 23.0645 150.022 23.1613 148.353 23.3548V33.7484C148.353 37.3871 148.469 39.9419 148.702 41.4129C149.906 41.5677 151.284 41.6452 152.837 41.6452C156.836 41.6452 160.796 41.1226 164.717 40.0774C165.3 39.1484 165.863 37.9484 166.406 36.4774C166.95 34.9677 167.261 34.0774 167.338 33.8065C167.571 33.7677 167.882 33.7484 168.27 33.7484C168.658 33.7484 169.085 33.9226 169.551 34.271C168.969 37.0194 168.542 39.8645 168.27 42.8064C168.231 43.271 167.979 43.5226 167.513 43.5613C165.805 43.8323 163.533 43.9677 160.699 43.9677Z" fill="#151515"/>
<path d="M176.273 1.75484L185.125 1.92903H194.093C197.782 1.92903 200.752 2.74194 203.004 4.36774C205.294 5.99355 206.44 8.37419 206.44 11.5097C206.44 14.0258 205.586 16.1548 203.877 17.8968C202.169 19.6387 200.402 20.7419 198.578 21.2065C201.761 21.7871 204.227 23.0258 205.974 24.9226C207.76 26.8194 208.653 29.2968 208.653 32.3548C208.653 35.9161 207.08 38.7032 203.936 40.7161C200.83 42.729 196.947 43.7355 192.288 43.7355C183.785 43.7355 178.272 43.8903 175.748 44.2C175.554 43.9677 175.457 43.6387 175.457 43.2129L175.516 42.7484C177.534 42.2839 178.855 41.5677 179.476 40.6C179.98 39.8258 180.31 38.8581 180.466 37.6968C180.932 34.1742 181.165 29.3742 181.165 23.2968C181.165 10.5613 180.815 4.07742 180.116 3.84516C179.379 3.65161 178.097 3.55484 176.273 3.55484C176.195 3.28387 176.156 2.97419 176.156 2.62581C176.156 2.27742 176.195 1.9871 176.273 1.75484ZM186.173 22.1355V33.7484C186.173 37.3871 186.29 39.9419 186.522 41.4129C187.92 41.5677 189.551 41.6452 191.414 41.6452C195.413 41.6452 198.384 40.9677 200.325 39.6129C202.305 38.2581 203.295 36.071 203.295 33.0516C203.295 29.9935 202.324 27.4581 200.383 25.4452C198.442 23.4323 195.918 22.4258 192.812 22.4258H190.366C190.133 22.1548 190.017 21.8258 190.017 21.4387L190.366 20.2774H192.055C198.267 20.2774 201.373 17.5871 201.373 12.2065C201.373 9.53548 200.558 7.50323 198.927 6.10968C197.296 4.67742 195.142 3.96129 192.463 3.96129C189.823 3.96129 187.959 4.03871 186.872 4.19355C186.406 6.05161 186.173 12.0323 186.173 22.1355Z" fill="#151515"/>
<path d="M240.023 5.4129C237.422 3.74839 234.918 2.91613 232.511 2.91613C230.104 2.91613 228.162 3.5742 226.687 4.89032C225.212 6.20645 224.474 7.87097 224.474 9.88387C224.474 11.8581 225.27 13.5806 226.862 15.0516C228.454 16.5226 231.016 18.1097 234.549 19.8129C240.218 22.5613 243.809 25.5032 245.323 28.6387C246.022 30.1097 246.371 31.6774 246.371 33.3419C246.371 36.9419 244.838 39.7677 241.771 41.8194C238.742 43.871 235.17 44.8968 231.055 44.8968C228.842 44.8968 226.532 44.6839 224.125 44.2581C221.717 43.8323 219.99 43.4065 218.941 42.9806C218.553 39.9613 217.893 36.5161 216.961 32.6452C217.66 32.2968 218.184 32.1226 218.534 32.1226C218.922 32.1226 219.213 32.1419 219.407 32.1806C220.494 34.8903 221.504 36.9419 222.436 38.3355C223.251 39.1871 223.969 39.8839 224.59 40.4258C225.212 40.929 226.221 41.4516 227.619 41.9935C229.055 42.5355 230.783 42.8064 232.802 42.8064C234.821 42.8064 236.646 42.1097 238.276 40.7161C239.907 39.3226 240.722 37.5419 240.722 35.3742C240.722 33.6323 240.412 32.3742 239.79 31.6C239.169 30.8258 238.703 30.2452 238.393 29.8581C238.121 29.471 237.577 29.0258 236.762 28.5226C235.947 27.9806 235.384 27.6129 235.073 27.4194C234.763 27.2258 234.083 26.8581 233.035 26.3161C232.025 25.7742 231.113 25.2903 230.298 24.8645C229.521 24.4 228.861 24.0129 228.318 23.7032C227.774 23.3935 226.939 22.9097 225.813 22.2516C224.687 21.5548 223.892 21.0129 223.426 20.6258C222.96 20.2 222.358 19.6387 221.62 18.9419C220.883 18.2452 220.358 17.6065 220.048 17.0258C219.271 15.3613 218.883 13.7935 218.883 12.3226C218.883 8.76129 220.378 5.99355 223.367 4.01936C226.357 2.00645 229.968 1 234.2 1C235.947 1 237.888 1.23226 240.023 1.69678C242.159 2.16129 243.809 2.64516 244.974 3.14839C244.624 4.50323 244.294 7.32903 243.984 11.6258C243.595 11.8194 243.188 11.9161 242.761 11.9161C242.334 11.9161 241.965 11.8387 241.654 11.6839C241.615 11.2194 241.382 10.1742 240.955 8.54839C240.528 6.88387 240.218 5.83871 240.023 5.4129Z" fill="#151515"/>
<path d="M279.606 43.9097L270.055 43.7355C265.862 43.7355 262.387 43.8903 259.63 44.2C259.436 43.9677 259.339 43.6387 259.339 43.2129L259.397 42.7484C262.076 42.3226 263.843 41.7806 264.697 41.1226C265.551 40.4258 266.114 39.3032 266.386 37.7548C266.93 34.8903 267.201 30.0903 267.201 23.3548C267.201 16.6194 267.124 11.9161 266.968 9.24516C266.813 6.57419 266.619 4.90968 266.386 4.25162C265.415 4.05807 264.231 3.96129 262.834 3.96129C259.572 3.96129 257.029 4.3871 255.204 5.23871L252.642 11.6258C251.749 11.6258 251.089 11.471 250.662 11.1613L251.594 2.16129C251.594 1.73548 251.924 1.52258 252.584 1.52258L262.834 1.92903H277.102L288.283 1.52258C288.982 1.52258 289.332 1.73548 289.332 2.16129C288.711 5.56774 288.4 8.68387 288.4 11.5097C288.089 11.6645 287.701 11.7419 287.235 11.7419C286.769 11.7419 286.4 11.6645 286.129 11.5097C285.43 7.67742 285.042 5.5871 284.964 5.23871C283.023 4.3871 280.363 3.96129 276.985 3.96129C275.471 3.96129 274.248 4.05807 273.316 4.25162C273.2 4.6 273.045 6.20645 272.85 9.07097C272.695 11.9355 272.617 15.6129 272.617 20.1032V30.4968C272.617 34.7935 272.928 38.529 273.549 41.7032C275.335 41.9742 277.354 42.1097 279.606 42.1097C279.722 42.4194 279.781 42.7677 279.781 43.1548C279.781 43.5032 279.722 43.7548 279.606 43.9097Z" fill="#151515"/>
<path d="M339.896 1.75484L348.748 1.92903H355.678C360.065 1.92903 363.521 2.87742 366.044 4.7742C368.568 6.63226 369.83 9.53549 369.83 13.4839C369.83 16.4645 369.034 18.9226 367.442 20.8581C365.889 22.7548 363.754 24.0903 361.036 24.8645C362.395 27.2258 364.084 29.9161 366.103 32.9355C368.16 35.9548 369.811 38.1806 371.053 39.6129C372.334 41.0064 373.402 41.7806 374.256 41.9355C375.11 42.0516 376.43 42.1097 378.216 42.1097C378.294 42.4194 378.333 42.729 378.333 43.0387C378.333 43.3097 378.294 43.6 378.216 43.9097C375.382 44.0645 373.169 44.2581 371.577 44.4903C370.024 44.7613 369.092 44.8968 368.782 44.8968C368.51 44.8968 367.928 44.4129 367.035 43.4452C366.18 42.4387 365.171 41.0645 364.006 39.3226C362.841 37.5419 361.774 35.8968 360.803 34.3871C359.871 32.8774 358.804 31.1548 357.6 29.2194C356.435 27.2452 355.717 26.0452 355.445 25.6194C352.96 25.6194 351.039 25.5419 349.68 25.3871V34.0387C349.68 36.3613 349.816 38.9161 350.087 41.7032C351.291 41.9742 352.999 42.1097 355.212 42.1097C355.329 42.4194 355.387 42.7677 355.387 43.1548C355.387 43.5032 355.329 43.7548 355.212 43.9097L347.467 43.7355C344.516 43.7355 341.818 43.8903 339.372 44.2C339.177 43.9677 339.08 43.6387 339.08 43.2129L339.139 42.7484C341.158 42.2839 342.478 41.5677 343.099 40.6C343.604 39.8258 343.934 38.8581 344.089 37.6968C344.555 34.1742 344.788 29.4129 344.788 23.4129C344.788 10.6 344.438 4.07742 343.739 3.84516C343.002 3.65161 341.721 3.55484 339.896 3.55484C339.74 3.28387 339.663 3.03226 339.663 2.8C339.663 2.56774 339.74 2.21936 339.896 1.75484ZM364.763 14.1226C364.763 11.2581 363.948 8.81935 362.317 6.80645C360.725 4.79355 358.59 3.7871 355.911 3.7871C353.232 3.7871 351.369 3.86452 350.32 4.01936C349.893 5.72258 349.68 12.1484 349.68 23.2968C351.077 23.4129 353.019 23.471 355.503 23.471C357.988 23.471 360.143 22.6194 361.968 20.9161C363.831 19.2129 364.763 16.9484 364.763 14.1226Z" fill="#151515"/>
<path d="M403.148 43.9677L393.189 43.7355H390.103C385.599 43.7355 382.357 43.8903 380.377 44.2C380.183 43.9677 380.086 43.6387 380.086 43.2129L380.144 42.7484C382.163 42.2839 383.483 41.5677 384.104 40.6C384.609 39.8258 384.939 38.8581 385.094 37.6968C385.56 34.1742 385.793 29.3742 385.793 23.2968C385.793 10.5613 385.444 4.07742 384.745 3.84516C384.007 3.65161 382.726 3.55484 380.901 3.55484C380.823 3.28387 380.785 2.97419 380.785 2.62581C380.785 2.27742 380.823 1.9871 380.901 1.75484L389.753 1.92903H396.451L410.195 1.52258C410.855 1.52258 411.185 1.73548 411.185 2.16129C411.185 2.2 411.126 2.66452 411.01 3.55484C410.622 5.95484 410.35 8.64516 410.195 11.6258C409.729 11.8581 409.302 11.9742 408.913 11.9742C408.564 11.9742 408.234 11.8968 407.923 11.7419C407.457 8.21936 407.108 6.03226 406.875 5.18065C403.342 4.36774 400.158 3.96129 397.324 3.96129C394.529 3.96129 392.587 4.03871 391.5 4.19355C391.034 6.67097 390.801 12.1871 390.801 20.7419C391.423 20.8968 393.073 20.9742 395.752 20.9742C398.431 20.9742 400.43 20.8968 401.75 20.7419C403.07 20.5871 404.021 20.2774 404.604 19.8129C405.225 19.3484 405.691 18.4 406.002 16.9677C406.817 16.9677 407.419 17.0839 407.807 17.3161C407.419 19.5226 407.225 21.1484 407.225 22.1935L407.341 27.2452C407.069 27.4387 406.72 27.5355 406.293 27.5355L405.477 27.4194L404.837 23.5871C402.74 23.2387 400.294 23.0645 397.499 23.0645C394.703 23.0645 392.471 23.1613 390.801 23.3548V33.7484C390.801 37.3871 390.918 39.9419 391.151 41.4129C392.354 41.5677 393.733 41.6452 395.286 41.6452C399.285 41.6452 403.245 41.1226 407.166 40.0774C407.749 39.1484 408.312 37.9484 408.855 36.4774C409.399 34.9677 409.709 34.0774 409.787 33.8065C410.02 33.7677 410.331 33.7484 410.719 33.7484C411.107 33.7484 411.534 33.9226 412 34.271C411.418 37.0194 410.991 39.8645 410.719 42.8064C410.68 43.271 410.428 43.5226 409.962 43.5613C408.253 43.8323 405.982 43.9677 403.148 43.9677Z" fill="#151515"/>
</svg>
